<svg style="display: block;" width="24" height="24" viewBox="0 0 24 24" fill="none" xmlns="http://www.w3.org/2000/svg">
<g id="SVG">
<path id="Vector" fill-rule="evenodd" clip-rule="evenodd" d="M2.99985 5.99715C2.99985 5.2015 3.31592 4.43843 3.87853 3.87583C4.44113 3.31322 5.2042 2.99715 5.99985 2.99715H8.24985C9.0455 2.99715 9.80856 3.31322 10.3712 3.87583C10.9338 4.43843 11.2498 5.2015 11.2498 5.99715V8.24715C11.2498 9.04279 10.9338 9.80586 10.3712 10.3685C9.80856 10.9311 9.0455 11.2471 8.24985 11.2471H5.99985C5.2042 11.2471 4.44113 10.9311 3.87853 10.3685C3.31592 9.80586 2.99985 9.04279 2.99985 8.24715V5.99715ZM12.7498 5.99715C12.7498 5.2015 13.0659 4.43843 13.6285 3.87583C14.1911 3.31322 14.9542 2.99715 15.7498 2.99715H17.9998C18.7955 2.99715 19.5586 3.31322 20.1212 3.87583C20.6838 4.43843 20.9998 5.2015 20.9998 5.99715V8.24715C20.9998 9.04279 20.6838 9.80586 20.1212 10.3685C19.5586 10.9311 18.7955 11.2471 17.9998 11.2471H15.7498C14.9542 11.2471 14.1911 10.9311 13.6285 10.3685C13.0659 9.80586 12.7498 9.04279 12.7498 8.24715V5.99715ZM2.99985 15.7471C2.99985 14.9515 3.31592 14.1884 3.87853 13.6258C4.44113 13.0632 5.2042 12.7471 5.99985 12.7471H8.24985C9.0455 12.7471 9.80856 13.0632 10.3712 13.6258C10.9338 14.1884 11.2498 14.9515 11.2498 15.7471V17.9971C11.2498 18.7928 10.9338 19.5559 10.3712 20.1185C9.80856 20.6811 9.0455 20.9971 8.24985 20.9971H5.99985C5.2042 20.9971 4.44113 20.6811 3.87853 20.1185C3.31592 19.5559 2.99985 18.7928 2.99985 17.9971V15.7471ZM12.7498 15.7471C12.7498 14.9515 13.0659 14.1884 13.6285 13.6258C14.1911 13.0632 14.9542 12.7471 15.7498 12.7471H17.9998C18.7955 12.7471 19.5586 13.0632 20.1212 13.6258C20.6838 14.1884 20.9998 14.9515 20.9998 15.7471V17.9971C20.9998 18.7928 20.6838 19.5559 20.1212 20.1185C19.5586 20.6811 18.7955 20.9971 17.9998 20.9971H15.7498C14.9542 20.9971 14.1911 20.6811 13.6285 20.1185C13.0659 19.5559 12.7498 18.7928 12.7498 17.9971V15.7471Z" fill="#9D9D9D" style="fill:#9D9D9D;fill:color(display-p3 0.6154 0.6154 0.6154);fill-opacity:1;"/>
</g>
</svg>
